<svg xmlns="http://www.w3.org/2000/svg" viewBox="0 0 512.00 512.00" width="512.00" height="512.00" role="img" aria-label="GoodDev Tech">
  <title>GoodDev Tech</title>
  <g transform="translate(79.802 126.788) scale(5.87329)">
    <path fill="#111111" d="M 12.832 22.000 L -3.096 41.467 L -3.400 41.893 L -3.746 42.597 L -3.948 43.354 L -3.998 44.137 L -3.894 44.914 L -3.641 45.656 L -3.248 46.335 L -2.730 46.924 L -2.107 47.400 L -1.403 47.746 L -0.902 47.897 L -0.386 47.981 L 0.398 47.980 L 1.167 47.826 L 1.891 47.525 L 2.335 47.248 L 2.924 46.730 L 21.096 24.533 L 21.399 24.108 L 21.745 23.406 L 21.896 22.906 L 21.998 22.131 L 21.947 21.350 L 21.745 20.594 L 21.399 19.892 L 21.096 19.467 L 2.924 -2.730 L 2.542 -3.088 L 1.891 -3.525 L 1.167 -3.826 L 0.657 -3.946 L -0.125 -3.998 L -0.902 -3.897 L -1.645 -3.646 L -2.107 -3.400 L -2.730 -2.924 L -3.248 -2.335 L -3.641 -1.656 L -3.894 -0.914 L -3.998 -0.137 L -3.948 0.646 L -3.746 1.403 L -3.400 2.107 L -3.096 2.533 Z"/>
    <path fill="#111111" d="M 33.832 22.000 L 17.904 41.467 L 17.600 41.893 L 17.254 42.597 L 17.052 43.354 L 17.002 44.137 L 17.106 44.914 L 17.359 45.656 L 17.752 46.335 L 18.270 46.924 L 18.893 47.400 L 19.597 47.746 L 20.098 47.897 L 20.614 47.981 L 21.398 47.980 L 22.167 47.826 L 22.656 47.641 L 23.335 47.248 L 23.924 46.730 L 42.096 24.533 L 42.399 24.108 L 42.745 23.406 L 42.896 22.906 L 42.998 22.131 L 42.947 21.350 L 42.745 20.594 L 42.399 19.892 L 42.096 19.467 L 23.924 -2.730 L 23.335 -3.248 L 22.891 -3.525 L 22.415 -3.742 L 21.657 -3.946 L 21.137 -3.998 L 20.354 -3.948 L 19.597 -3.746 L 18.893 -3.400 L 18.270 -2.924 L 17.752 -2.335 L 17.359 -1.656 L 17.106 -0.914 L 17.002 -0.137 L 17.052 0.646 L 17.254 1.403 L 17.600 2.107 L 17.904 2.533 Z"/>
    <path fill="#111111" d="M 54.832 22.000 L 38.904 41.467 L 38.600 41.893 L 38.254 42.597 L 38.052 43.354 L 38.002 44.137 L 38.106 44.914 L 38.359 45.656 L 38.752 46.335 L 39.270 46.924 L 39.893 47.400 L 40.597 47.746 L 41.098 47.897 L 41.614 47.981 L 42.398 47.980 L 43.167 47.826 L 43.891 47.525 L 44.335 47.248 L 44.924 46.730 L 63.096 24.533 L 63.399 24.108 L 63.745 23.406 L 63.896 22.906 L 63.998 22.131 L 63.947 21.350 L 63.745 20.594 L 63.399 19.892 L 63.096 19.467 L 44.924 -2.730 L 44.542 -3.088 L 43.891 -3.525 L 43.415 -3.742 L 42.657 -3.946 L 41.875 -3.998 L 41.098 -3.897 L 40.355 -3.646 L 39.893 -3.400 L 39.270 -2.924 L 38.752 -2.335 L 38.359 -1.656 L 38.106 -0.914 L 38.002 -0.137 L 38.052 0.646 L 38.254 1.403 L 38.600 2.107 L 38.904 2.533 Z"/>
  </g>
</svg>
